<svg xmlns="http://www.w3.org/2000/svg" viewBox="0 0 14 14" enable-background="new 0 0 14 14"><style type="text/css">.st0{fill:#FF5555;}</style><path class="st0" d="M1.1 13c.3.3.7.5 1.1.7.3.1.6.2.9.2h.6c2.1 0 4.6-1.2 6.8-3.4 2.3-2.2 3.5-4.6 3.5-6.8v-.6c0-.3-.1-.6-.2-.9-.2-.4-.4-.8-.7-1.1l-.7-.7c-.4-.3-.6-.4-1-.4-.3 0-.6.1-.8.3l-2.1 2.1c-.4.4-.4 1.2 0 1.7l1.5 1.3-.1.1c-.4.7-.9 1.6-1.8 2.6-1 .9-1.9 1.4-2.5 1.8-.1 0-.1.1-.1.1l-1.4-1.4c-.5-.5-1.2-.5-1.7 0l-2.1 2.1c-.2.1-.3.4-.3.7 0 .3.1.6.4.8l.7.8z"/></svg>